<svg width="780" height="220" xmlns="http://www.w3.org/2000/svg" viewBox="0 0 780 220">
  <rect width="780" height="220" fill="#060810" rx="12"/>
  <text x="16" y="22" fill="#63ffda" font-family="JetBrains Mono, monospace" font-size="10" opacity="0.6">SWARM HEALTH — composite score from latency · utilization · profitability · fault_rate</text>
  <defs>
    <filter id="g-swarm" x="-50%" y="-50%" width="200%" height="200%">
      <feGaussianBlur in="SourceGraphic" stdDeviation="3" result="blur"/>
      <feComposite in="SourceGraphic" in2="blur" operator="over"/>
    </filter>
    <linearGradient id="grad-g-swarm" x1="0%" y1="0%" x2="100%" y2="0%">
      <stop offset="0%"   stop-color="#f472b6" stop-opacity="0.8"/>
      <stop offset="100%" stop-color="#f472b6" stop-opacity="0.2"/>
    </linearGradient>
  </defs>
<circle cx="120" cy="110" r="70" fill="none" stroke="#f472b6" stroke-width="2">
    <animate attributeName="r" values="70;140;70" dur="3s" repeatCount="indefinite"/>
    <animate attributeName="opacity" values="0.8;0;0.8" dur="3s" repeatCount="indefinite"/>
  </circle>
<g>
    <path d="M70.5 60.5 A70 70 0 0 1 70.5 159.5" fill="none" stroke="#111827" stroke-width="8"/>
    <path d="M70.5 60.5 A70 70 0 0 1 158.4 51.5" fill="none" stroke="#f472b6" stroke-width="8" stroke-linecap="round"/>
    <text x="120" y="114" text-anchor="middle" fill="#f472b6" font-family="JetBrains Mono, monospace" font-size="14" font-weight="700">29%</text>
    <text x="120" y="130" text-anchor="middle" fill="#64748b" font-family="JetBrains Mono, monospace" font-size="9">HEALTH</text>
  </g>
<g>
    <path d="M268.9 78.9 A44 44 0 1 1 268.9 141.1" fill="none" stroke="#111827" stroke-width="8"/>
    <path d="M268.9 78.9 A44 44 0 1 1 306.7 153.5" fill="none" stroke="#38bdf8" stroke-width="8" stroke-linecap="round"/>
    <text x="300" y="114" text-anchor="middle" fill="#38bdf8" font-family="JetBrains Mono, monospace" font-size="14" font-weight="700">80%</text>
    <text x="300" y="130" text-anchor="middle" fill="#64748b" font-family="JetBrains Mono, monospace" font-size="9">LATENCY</text>
  </g>
<g>
    <path d="M378.9 78.9 A44 44 0 1 1 378.9 141.1" fill="none" stroke="#111827" stroke-width="8"/>
    <path d="M378.9 78.9 A44 44 0 1 1 428.7 149.8" fill="none" stroke="#63ffda" stroke-width="8" stroke-linecap="round"/>
    <text x="410" y="114" text-anchor="middle" fill="#63ffda" font-family="JetBrains Mono, monospace" font-size="14" font-weight="700">74%</text>
    <text x="410" y="130" text-anchor="middle" fill="#64748b" font-family="JetBrains Mono, monospace" font-size="9">UTILIZATION</text>
  </g>
<g>
    <path d="M488.9 78.9 A44 44 0 1 1 488.9 141.1" fill="none" stroke="#111827" stroke-width="8"/>
    <path d="M488.9 78.9 A44 44 0 1 1 559.8 128.9" fill="none" stroke="#4ade80" stroke-width="8" stroke-linecap="round"/>
    <text x="520" y="114" text-anchor="middle" fill="#4ade80" font-family="JetBrains Mono, monospace" font-size="14" font-weight="700">59%</text>
    <text x="520" y="130" text-anchor="middle" fill="#64748b" font-family="JetBrains Mono, monospace" font-size="9">FAULT FREE</text>
  </g>
<g>
    <path d="M598.9 78.9 A44 44 0 0 1 598.9 141.1" fill="none" stroke="#111827" stroke-width="8"/>
    <path d="M598.9 78.9 A44 44 0 0 1 646.8 69.3" fill="none" stroke="#a78bfa" stroke-width="8" stroke-linecap="round"/>
    <text x="630" y="114" text-anchor="middle" fill="#a78bfa" font-family="JetBrains Mono, monospace" font-size="14" font-weight="700">25%</text>
    <text x="630" y="130" text-anchor="middle" fill="#64748b" font-family="JetBrains Mono, monospace" font-size="9">PROFIT</text>
  </g>
<text x="290" y="185" fill="#64748b" font-family="JetBrains Mono, monospace" font-size="8">LATENCY</text>
                  <text x="290" y="199" fill="#63ffda" font-family="JetBrains Mono, monospace" font-size="12" font-weight="700">99.5ms</text>
<text x="410" y="185" fill="#64748b" font-family="JetBrains Mono, monospace" font-size="8">UTILIZATION</text>
                  <text x="410" y="199" fill="#63ffda" font-family="JetBrains Mono, monospace" font-size="12" font-weight="700">74%</text>
<text x="530" y="185" fill="#64748b" font-family="JetBrains Mono, monospace" font-size="8">PROFIT</text>
                  <text x="530" y="199" fill="#63ffda" font-family="JetBrains Mono, monospace" font-size="12" font-weight="700">0.25%</text>
<text x="650" y="185" fill="#64748b" font-family="JetBrains Mono, monospace" font-size="8">FAULT</text>
                  <text x="650" y="199" fill="#63ffda" font-family="JetBrains Mono, monospace" font-size="12" font-weight="700">2.03%</text>
<text x="120" y="185" text-anchor="middle" fill="#f472b6" font-family="JetBrains Mono, monospace" font-size="11">29 / 100</text>
</svg>